<svg width="31" height="22" viewBox="0 0 31 22" fill="none" xmlns="http://www.w3.org/2000/svg">
<path d="M28.3079 10.4331C25.4322 8.37924 25.2962 7.14649 23.3784 7.14649C21.4613 7.14649 18.8422 7.14649 17.747 7.14649C16.6509 7.14649 15.9666 9.61123 16.6509 10.1589C17.3353 10.7065 18.2938 14.6782 16.9244 14.6782C15.5549 14.6782 10.9172 14.6782 10.9172 14.6782C10.9172 14.6782 9.27428 12.2127 10.0961 9.13157C10.5185 7.54747 10.9745 5.29507 10.7247 3.46045H12.1377C12.5609 3.46045 12.903 3.11827 12.903 2.69513C12.903 2.27276 12.5609 1.93058 12.1377 1.93058H10.2771C9.79747 0.985014 8.93515 0.344197 7.49312 0.299133C7.49312 0.299133 5.71274 2.21624 7.49312 4.40678C7.49312 4.40678 8.58992 4.54426 7.49312 5.91373C6.48492 7.17398 4.03164 9.5402 3.64669 12.8459C1.91748 13.4913 0.68396 15.1533 0.68396 17.1078C0.68396 19.623 2.72174 21.6615 5.23613 21.6615C7.45799 21.6615 9.30559 20.069 9.70734 17.964C11.4977 17.964 15.4785 17.964 19.4319 17.964C19.8321 20.069 21.6797 21.6615 23.9023 21.6615C26.1234 21.6615 27.9718 20.069 28.372 17.964C28.9991 17.964 29.4551 17.964 29.6773 17.964C31.5944 17.9655 31.1843 12.4877 28.3079 10.4331ZM5.2369 19.6802C3.81778 19.6802 2.66675 18.5292 2.66675 17.1093C2.66675 15.6902 3.81778 14.5392 5.2369 14.5392C6.65678 14.5392 7.8078 15.6902 7.8078 17.1093C7.80857 18.5292 6.65754 19.6802 5.2369 19.6802ZM23.9031 19.6802C22.7834 19.6802 21.834 18.9638 21.4811 17.9655C23.2523 17.9655 24.9373 17.9655 26.3243 17.9655C25.9722 18.963 25.022 19.6802 23.9031 19.6802Z" fill="#AA3939"/>
<path d="M17.2169 6.3247H23.5158C24.272 6.3247 24.8853 5.71137 24.8853 4.95523C24.8853 4.19908 24.272 3.58575 23.5158 3.58575H17.2169C16.4607 3.58575 15.8474 4.19908 15.8474 4.95523C15.8474 5.71137 16.4607 6.3247 17.2169 6.3247Z" fill="#AA3939"/>
</svg>
